<svg version="1.1" xmlns="http://www.w3.org/2000/svg" xmlns:xlink="http://www.w3.org/1999/xlink" width="198.33891" height="110.32852" viewBox="0,0,198.33891,110.32852"><g transform="translate(-118.13334,-101.28816)"><g data-paper-data="{&quot;isPaintingLayer&quot;:true}" fill-rule="nonzero" stroke-linejoin="miter" stroke-miterlimit="10" stroke-dasharray="" stroke-dashoffset="0" style="mix-blend-mode: normal"><path d="M149.6116,166.7051l-11.72778,15.42689l4.72861,24.38091l-10.06131,2.62469" fill="none" stroke="#000000" stroke-width="3.5" stroke-linecap="round"/><path d="M187.34152,209.86668l-10.06131,-2.62469l4.13869,-24.44382l-11.13786,-15.36397" data-paper-data="{&quot;index&quot;:null}" fill="none" stroke="#000000" stroke-width="3.5" stroke-linecap="round"/><path d="M173.74416,109.96442c0,3.82527 -3.30501,6.92626 -7.38194,6.92626c-4.07693,0 -7.38194,-3.10099 -7.38194,-6.92626c0,-3.82527 3.30501,-6.92626 7.38194,-6.92626c4.07693,0 7.38194,3.10099 7.38194,6.92626z" fill="#ffffff" stroke="#000000" stroke-width="3.5" stroke-linecap="butt"/><path d="M134.44672,145.3795c0,-14.31457 11.60425,-25.91881 25.91881,-25.91881c14.31457,0 25.91881,11.60425 25.91881,25.91881c0,14.31457 -11.60425,25.91881 -25.91881,25.91881c-14.31457,0 -25.91881,-11.60425 -25.91881,-25.91881z" fill="#ffffff" stroke="#000000" stroke-width="3.5" stroke-linecap="butt"/><path d="M148.44507,135.50046l-0.21872,10.28004" fill="none" stroke="#000000" stroke-width="3.5" stroke-linecap="round"/><path d="M159.6,145.83518v-10.06131" fill="none" stroke="#000000" stroke-width="3.5" stroke-linecap="round"/><path d="M148.3021,154.24896l9.5817,0.81618" fill="none" stroke="#000000" stroke-width="3.5" stroke-linecap="round"/><path d="M137.6146,126.04759c3.86691,-4.87232 10.73751,-10.6737 21.79307,-11.33926c12.54572,-0.75529 20.47177,6.29553 24.71463,11.83514c2.65497,3.46643 1.6768,6.00494 -1.56206,5.56572c-6.10249,-0.82755 -15.92521,-2.02096 -21.82315,-2.02096c-5.80924,0 -15.24481,1.12987 -21.3493,1.95321c-3.49903,0.47193 -4.69705,-2.30978 -1.77319,-5.99385z" fill="#ffffff" stroke="#000000" stroke-width="3.5" stroke-linecap="round"/><path d="M201.65307,180.8594c0,3.41814 -2.57539,6.1891 -5.7523,6.1891c-3.1769,0 -5.7523,-2.77095 -5.7523,-6.1891c0,-3.41814 2.57539,-6.18908 5.7523,-6.18908c3.1769,0 5.7523,2.77095 5.7523,6.18908z" fill="#ffffff" stroke="#000000" stroke-width="3.5" stroke-linecap="butt"/><path d="M129.2007,173.12102c0,2.76829 -2.08575,5.01244 -4.65867,5.01244c-2.57292,0 -4.65868,-2.24414 -4.65868,-5.01244c0,-2.76829 2.08576,-5.01242 4.65868,-5.01242c2.57292,0 4.65867,2.24413 4.65867,5.01242z" fill="#ffffff" stroke="#000000" stroke-width="3.5" stroke-linecap="butt"/><path d="M232.66926,154.07799c-3.19474,-0.18495 -3.00978,-3.37969 -3.00978,-3.37969l0.18817,-3.2096c-0.05907,-3.00123 0.7958,-8.47471 -1.75642,-10.82372c-1.46807,-1.35119 -6.80693,-2.052 -7.85191,0.20662c-1.43348,3.09833 -0.15176,9.15356 -0.08912,12.45996c0,0 0.06062,3.19951 -3.1389,3.26013c-3.19951,0.06062 -3.26013,-3.1389 -3.26013,-3.1389c-0.08464,-4.46742 -1.5089,-11.7183 0.91323,-15.72485c3.43804,-5.68699 12.97288,-6.12299 17.7151,-1.81407c4.36365,3.96494 3.77125,10.44996 3.86712,15.69925l-0.19767,3.45508c0,0 -0.18495,3.19474 -3.37969,3.00978z" fill="#000000" stroke="none" stroke-width="0.5" stroke-linecap="butt"/><path d="M251.10471,135.65131c-0.56329,0.42895 -1.14951,0.57598 -1.14951,0.57598c-3.76929,0.78729 -6.42845,4.21533 -6.04809,8.25613c0.23342,2.47976 1.92078,5.58493 4.74674,5.68896c6.69589,0.24648 11.61316,-12.01054 4.67029,-14.26468c-0.73981,-0.08547 -1.47962,-0.17092 -2.21943,-0.25639zM245.40004,131.88757c0.52902,-1.86429 2.66468,-1.90475 2.66468,-1.90475l3.12318,-0.03066c1.17868,0.15326 2.35735,0.30652 3.53603,0.45979c1.27579,0.54211 2.75604,0.74668 3.82737,1.62632c9.08403,7.45867 0.91102,24.5468 -10.20345,23.79707c-8.6355,-0.58251 -12.23721,-11.03265 -8.78269,-18.02711c1.44399,-2.92369 3.33288,-4.71642 5.83487,-5.92066z" fill="#000000" stroke="none" stroke-width="0.5" stroke-linecap="butt"/><path d="M286.23479,155.63314c-1.86624,0.03536 -2.58285,-1.21684 -2.8577,-2.15117c-0.02289,0.01434 -0.04586,0.02857 -0.06889,0.04271c-5.27587,3.23856 -15.63709,2.27615 -18.6257,-4.39873c-2.69591,-6.02114 -0.60395,-12.1213 3.5383,-15.73673c0.47656,-2.26097 2.82415,-2.30545 2.82415,-2.30545l0.47482,-0.009c0.141,-0.00267 0.28537,-0.00701 0.43278,-0.01274c0.41363,-0.17165 0.83609,-0.32199 1.26588,-0.44959c0,0 1.11081,-0.29882 2.12639,0.21934c2.83637,-0.19799 5.93105,-0.27721 8.01532,0.89656c0.11776,0.06631 0.23353,0.13478 0.34731,0.20533c0.259,-0.933 0.94338,-2.13189 2.74981,-2.16611c2.96764,-0.05622 3.02825,3.14329 3.02825,3.14329c0.09955,5.81858 -0.49705,11.58188 -0.38248,17.41885l0.03879,2.04769c0,0 0.06062,3.19951 -2.90702,3.25574zM273.17776,137.36376c-2.88982,1.4766 -4.67009,5.11071 -3.21678,8.84975c1.45047,3.73174 9.97558,3.52476 11.84284,0.52391c1.35784,-2.18218 1.76925,-7.93553 -1.09164,-9.28915c-1.83961,-0.87041 -5.0794,-0.33797 -7.53442,-0.08451z" fill="#000000" stroke="none" stroke-width="0.5" stroke-linecap="butt"/><path d="M313.12278,157.42822c-3.19951,0.06062 -3.26013,-3.1389 -3.26013,-3.1389l-0.01558,-1.25196c0.23877,-4.50524 1.42058,-13.74247 -3.49082,-16.72951c-1.26303,-0.76816 -2.83199,0.96626 -4.05385,1.79833c-4.00136,2.72487 -2.62346,9.07198 -2.23853,13.05066c0,0 0.30583,3.18544 -2.87961,3.49127c-1.92657,0.18497 -2.79981,-0.90713 -3.18912,-1.7992l-0.72987,0.12101c-1.82487,-7.95173 0.13494,-14.73233 0.53095,-22.65717c0.34627,-6.92955 -0.01803,-14.09625 -0.14954,-21.03759c0,0 -0.06062,-3.19951 3.1389,-3.26013c3.19951,-0.06062 3.26013,3.1389 3.26013,3.1389c0.13412,7.07937 0.49656,14.39251 0.14351,21.46165c-0.01968,0.39405 -0.04438,0.78551 -0.07321,1.17467c0.94775,-0.49845 2.02132,-0.90791 3.2357,-1.21365c1.74125,-0.43838 3.72406,-0.89858 5.38266,-0.21069c1.76836,0.73341 2.81285,2.61696 4.01384,4.1078c4.42688,5.49527 3.83221,12.30514 3.49026,18.89866l0.02321,0.79573c0,0 0.06062,3.19951 -3.1389,3.26013z" fill="#000000" stroke="none" stroke-width="0.5" stroke-linecap="butt"/><path d="M255.4523,203.15119c0.0598,3.15624 -3.13972,3.21685 -3.13972,3.21685l-0.25596,0.00485c-3.34135,0.0633 -8.94824,1.03116 -12.06876,0.05066c-10.12303,-3.18079 -11.97325,-18.32204 -1.46409,-22.34357c3.78339,-1.44778 9.08299,0.51152 12.73728,1.46453c0,0 3.09284,0.80881 2.27135,3.86026c-0.82148,3.05145 -3.91432,2.24264 -3.91432,2.24264c-1.95109,-0.51173 -6.76303,-2.51708 -8.83042,-1.66313c-4.76634,1.96877 -3.52544,9.23351 1.20547,10.44251c2.60229,0.66503 7.21643,-0.3147 9.9439,-0.36637l0.25596,-0.00485c0,0 3.19951,-0.06062 3.25931,3.09562z" fill="#000000" stroke="none" stroke-width="0.5" stroke-linecap="butt"/><path d="M280.81636,209.0241c-1.86624,0.03536 -2.58285,-1.21684 -2.8577,-2.15117c-0.02289,0.01434 -0.04586,0.02857 -0.06889,0.04271c-5.27587,3.23856 -15.63709,2.27615 -18.6257,-4.39873c-2.69591,-6.02114 -0.60395,-12.1213 3.5383,-15.73673c0.47656,-2.26097 2.82415,-2.30545 2.82415,-2.30545l0.47482,-0.009c0.141,-0.00267 0.28537,-0.00701 0.43278,-0.01274c0.41363,-0.17165 0.83609,-0.32199 1.26588,-0.44959c0,0 1.11081,-0.29882 2.12639,0.21934c2.83637,-0.19799 5.93105,-0.27721 8.01532,0.89656c0.11776,0.06631 0.23353,0.13478 0.34731,0.20533c0.259,-0.933 0.94338,-2.13189 2.74981,-2.16611c2.96764,-0.05622 3.02825,3.14329 3.02825,3.14329c0.09955,5.81858 -0.49705,11.58188 -0.38248,17.41885l0.03879,2.04769c0,0 0.06062,3.19951 -2.90702,3.25574zM267.75933,190.75472c-2.88982,1.4766 -4.67009,5.11071 -3.21678,8.84975c1.45047,3.73174 9.97558,3.52476 11.84284,0.52391c1.35784,-2.18218 1.76925,-7.93553 -1.09164,-9.28915c-1.83961,-0.87041 -5.0794,-0.33797 -7.53442,-0.08451z" fill="#000000" stroke="none" stroke-width="0.5" stroke-linecap="butt"/><path d="M231.09193,184.08999c0.06062,3.19951 -3.1389,3.26013 -3.1389,3.26013l-1.27981,0.02425c-2.59472,0.04608 -5.18752,0.02494 -7.78179,0.00018c-0.38961,5.5647 -0.64999,11.08466 -0.5417,16.80095c0,0 0.06062,3.19951 -3.1389,3.26013c-3.19951,0.06062 -3.26013,-3.1389 -3.26013,-3.1389c-0.10913,-5.76023 0.1432,-11.34021 0.5289,-16.95519c-0.81618,0.0039 -1.63278,0.01259 -2.44991,0.02807c0,0 -3.19951,0.06062 -3.26013,-3.1389c-0.06062,-3.19951 3.1389,-3.26013 3.1389,-3.26013c1.01841,-0.01929 2.03633,-0.02759 3.05384,-0.02896c0.04331,-0.54122 0.08705,-1.08351 0.13103,-1.62703c0.37248,-4.60411 -0.11188,-11.32188 3.61599,-14.91108c3.79838,-3.65709 10.95581,-2.84777 15.55894,-2.03816l2.71858,2.27179c0,0 1.82521,2.62853 -0.80333,4.45374c-2.2535,1.56479 -3.91655,-0.14392 -4.34524,-0.66337c-2.67867,-0.46623 -7.05685,-1.02721 -8.70689,0.60284c-2.13609,2.11021 -1.44634,8.17516 -1.65822,10.79414c-0.03141,0.38819 -0.0627,0.77566 -0.09383,1.16248c2.39201,0.02293 4.78258,0.03675 7.17267,-0.01165l1.27981,-0.02425c0,0 3.19951,-0.06062 3.26013,3.1389z" fill="#000000" stroke="none" stroke-width="0.5" stroke-linecap="butt"/><path d="M287.30072,207.19011c-0.03348,-1.76704 1.37186,-3.22665 3.1389,-3.26013c1.76704,-0.03348 3.22665,1.37186 3.26013,3.1389c0.03348,1.76704 -1.37186,3.22665 -3.1389,3.26013c-1.76704,0.03348 -3.22665,-1.37186 -3.26013,-3.1389z" fill="#000000" stroke="none" stroke-width="0.5" stroke-linecap="butt"/></g></g></svg>